<?xml version="1.0" standalone="no"?>
<!DOCTYPE svg PUBLIC "-//W3C//DTD SVG 20010904//EN"
 "http://www.w3.org/TR/2001/REC-SVG-20010904/DTD/svg10.dtd">
<svg version="1.0" xmlns="http://www.w3.org/2000/svg"
 width="200.000000pt" height="200.000000pt" viewBox="0 0 200.000000 200.000000"
 preserveAspectRatio="xMidYMid meet">
<metadata>
Created by potrace 1.16, written by Peter Selinger 2001-2019
</metadata>
<g transform="translate(0.000000,200.000000) scale(0.100000,-0.100000)"
fill="#000000" stroke="none">
<path d="M980 1570 c0 -17 -9 -39 -20 -50 -15 -15 -20 -32 -18 -60 2 -45 -9
-63 -23 -38 -10 18 -39 14 -39 -5 0 -6 8 -19 17 -29 16 -18 15 -21 -5 -63 -15
-31 -19 -54 -15 -79 3 -20 9 -36 12 -36 4 0 21 29 39 65 31 64 32 65 72 65 40
0 41 -1 72 -65 18 -36 35 -65 39 -65 3 0 9 16 12 36 4 25 0 48 -15 79 -20 42
-21 45 -5 63 9 10 17 23 17 29 0 18 -30 24 -36 8 -12 -31 -24 -13 -24 34 0 31
-5 53 -15 61 -8 7 -15 21 -15 30 0 32 -12 50 -31 50 -14 0 -19 -7 -19 -30z"/>
<path d="M600 680 l0 -190 79 0 c113 0 111 -4 111 190 0 191 0 190 -117 190
l-73 0 0 -190z m125 0 l0 -135 -32 -3 -33 -3 0 141 0 141 33 -3 32 -3 0 -135z"/>
<path d="M840 680 l0 -190 35 0 35 0 0 190 0 190 -35 0 -35 0 0 -190z"/>
<path d="M972 688 c-18 -101 -32 -186 -32 -190 0 -5 13 -8 30 -8 27 0 30 4 36
41 7 39 8 40 43 37 33 -3 36 -6 41 -38 4 -31 9 -35 38 -38 17 -2 32 -1 32 2 0
6 -39 211 -61 324 l-10 52 -43 0 -42 0 -32 -182z"/>
<path d="M1190 681 l0 -191 83 0 c51 0 88 5 95 12 15 15 17 325 2 348 -7 11
-33 16 -95 19 l-85 3 0 -191z m128 -3 l3 -138 -36 0 -35 0 0 141 0 140 33 -3
32 -3 3 -137z"/>
</g>
</svg>
